<?xml version="1.0" encoding="utf-8"?>
<!-- Generator: Adobe Illustrator 27.0.1, SVG Export Plug-In . SVG Version: 6.00 Build 0)  -->
<svg version="1.1" id="Layer_2_00000031174115371006788340000006233812852022267561_"
	 xmlns="http://www.w3.org/2000/svg" xmlns:xlink="http://www.w3.org/1999/xlink" x="0px" y="0px" viewBox="0 0 256.2 256"
	 style="enable-background:new 0 0 256.2 256;" xml:space="preserve">
<style type="text/css">
	.st0{fill:#FFC5F3;}
	.st1{clip-path:url(#SVGID_00000104686085832260936140000007586420609453386401_);}
	.st2{fill:#7C003C;}
	.st3{fill-rule:evenodd;clip-rule:evenodd;fill:#7C003C;}
</style>
<g id="Layer_1-2">
	<circle class="st0" cx="128" cy="128" r="128"/>
	<g>
		<defs>
			<circle id="SVGID_1_" cx="128" cy="128" r="128"/>
		</defs>
		<clipPath id="SVGID_00000072237827010136878840000005120736371199271601_">
			<use xlink:href="#SVGID_1_"  style="overflow:visible;"/>
		</clipPath>
		<g style="clip-path:url(#SVGID_00000072237827010136878840000005120736371199271601_);">
			<g>
				<rect x="136.7" y="47" class="st2" width="204.4" height="36.7"/>
				<rect x="136.7" y="108.6" class="st2" width="204.4" height="36.7"/>
				<rect x="136.7" y="170.3" class="st2" width="204.4" height="36.7"/>
			</g>
		</g>
	</g>
	<path class="st3" d="M24.4,154.9c0,0,15.4-14.7,32.7-16.7c0,0-30.7-16-47.1-4.7c0,0,23.4-23.1,53.8-19c0,0-20.4-3.3-28.7-12
		c35.3,2.5,38.1-11.2,57.1-11.2c12,0,22.3,7.1,28.7,16.6c-3-0.7-6.3-0.7-9.6-0.1c3.6,0.6,8.8,5.1,8.8,5.1c-8.7-7.2-32.2,7.8-39.5,13
		c18.5-2.7,29.6,5.2,29.6,5.2c-5.8-0.5-14.9,2.7-20.2,5.2c0.7,0,1.5,0,2.2,0c4.9,0.1,7.4,0,11.9,2.4c2,1,3.9,2.2,5.9,3.2
		c4,2.1,8.6,3,12.9,2.5c-6,9.8-17.3,16.6-30.6,15.4C75.5,158.2,52.5,146.1,24.4,154.9L24.4,154.9L24.4,154.9z"/>
</g>
</svg>
